ply
format ascii 1.0
comment Created by Blender 2.79 (sub 0) - www.blender.org, source file: ''
element vertex 396
property float x
property float y
property float z
property float nx
property float ny
property float nz
property float s
property float t
element face 312
property list uchar uint vertex_indices
end_header
0.666931 1.317112 -0.394045 -0.019959 0.104343 -0.994324 0.175435 0.163566
0.532259 1.561228 -0.130871 -0.213660 0.901975 -0.375134 0.227393 0.163566
1.578049 2.215611 -0.310817 -0.703726 0.612507 -0.359905 0.202202 0.288261
1.808695 2.064221 -0.575477 -0.108829 -0.013489 -0.993957 0.150245 0.289632
0.602104 1.544892 0.284451 -0.020875 0.805719 0.591906 0.279351 0.163566
1.648636 2.161564 0.062301 -0.481155 0.579699 0.657582 0.254160 0.285937
0.830614 1.247249 0.421270 0.361797 -0.011689 0.932157 0.331308 0.163566
1.974900 2.010387 0.199180 0.252144 -0.095340 0.962951 0.306118 0.289632
0.965284 1.003132 0.158099 0.527909 -0.799890 0.285379 0.383266 0.163566
2.183435 1.833302 -0.061947 0.751061 -0.593890 0.288400 0.358075 0.288261
0.895441 1.019472 -0.257222 0.347331 -0.746910 -0.566942 0.435223 0.163566
2.075360 1.843819 -0.429067 0.569292 -0.566485 -0.595782 0.410033 0.285937
0.666931 1.317112 -0.394045 -0.019959 0.104343 -0.994324 0.487181 0.163566
1.808695 2.064221 -0.575477 -0.108829 -0.013489 -0.993957 0.461990 0.289632
2.255079 3.500499 -0.428590 -0.820124 0.463485 -0.335459 0.172788 0.435765
2.508605 3.363052 -0.643890 -0.225593 -0.101321 -0.968932 0.120830 0.437733
2.308790 3.517195 -0.076206 -0.612659 0.542680 0.574541 0.224745 0.434466
2.626104 3.431623 0.085413 0.187323 0.182195 0.965239 0.276703 0.437733
2.854120 3.254416 -0.119069 0.823359 -0.376293 0.424818 0.328660 0.435765
2.783566 3.211465 -0.464308 0.649251 -0.534867 -0.540666 0.380618 0.434466
2.508605 3.363052 -0.643890 -0.225593 -0.101321 -0.968932 0.432576 0.437733
3.165187 4.534330 -0.950646 -0.814142 0.364238 -0.452162 0.144204 0.574706
3.361450 4.396698 -1.139108 -0.210059 -0.289956 -0.933683 0.092247 0.576682
3.257918 4.657797 -0.670740 -0.578906 0.645680 0.497909 0.196162 0.579905
3.524416 4.516509 -0.541908 0.280709 0.289010 0.915220 0.248120 0.576682
3.695448 4.340775 -0.711634 0.842860 -0.341716 0.415693 0.300077 0.574706
3.669113 4.317552 -1.040835 0.623371 -0.608844 -0.490585 0.352035 0.579905
3.361450 4.396698 -1.139108 -0.210059 -0.289956 -0.933683 0.403993 0.576682
3.803123 5.670857 -1.524275 -0.917783 -0.023774 -0.396313 0.116520 0.717314
4.033671 5.533670 -1.629562 -0.108463 -0.503067 -0.857387 0.064563 0.714772
3.844727 5.788455 -1.263002 -0.646077 0.555010 0.523911 0.168478 0.716962
4.111262 5.765340 -1.136238 0.246101 0.487655 0.837611 0.220436 0.714772
4.354634 5.679407 -1.277044 0.909818 0.075228 0.408094 0.272393 0.717314
4.311254 5.554720 -1.533400 0.794488 -0.441725 -0.416669 0.324351 0.716962
4.033671 5.533670 -1.629562 -0.108463 -0.503067 -0.857387 0.376309 0.714772
3.814357 6.778150 -2.570208 -0.853450 -0.216712 -0.473952 0.087492 0.861430
4.027018 6.739266 -2.712689 -0.101901 -0.362957 -0.926206 0.035535 0.861160
3.817555 6.895843 -2.334143 -0.873562 0.128605 0.469344 0.139450 0.865035
4.074273 6.886886 -2.232733 0.162755 0.421857 0.891903 0.191408 0.861160
4.286496 6.854018 -2.377841 0.941099 0.189306 0.280129 0.243365 0.861430
4.277483 6.817109 -2.648931 0.764763 -0.141270 -0.628590 0.295323 0.865035
4.027018 6.739266 -2.712689 -0.101901 -0.362957 -0.926206 0.347280 0.861160
3.707166 8.122302 -2.559308 -0.921995 -0.070650 -0.380688 0.061958 0.988661
3.889527 8.090517 -2.685072 -0.198889 0.012482 -0.979919 0.010000 0.990000
3.717897 8.153019 -2.340397 -0.831904 -0.070132 0.550401 0.113915 0.989790
3.916673 8.124286 -2.234452 -0.027375 0.006836 0.999573 0.165873 0.990000
4.091494 8.061701 -2.355482 0.856044 0.126225 0.501206 0.217831 0.988661
4.087121 8.056953 -2.578388 0.779168 0.139042 -0.611133 0.269788 0.989790
3.889527 8.090517 -2.685072 -0.198889 0.012482 -0.979919 0.321746 0.990000
-0.755164 1.251675 -0.022916 -0.662160 -0.578448 -0.476302 0.227375 0.163655
-1.841849 2.279704 0.304316 -0.855586 -0.322367 -0.405011 0.201632 0.292434
-1.541856 2.404155 0.097800 -0.203650 0.088504 -0.975005 0.149675 0.290455
-0.540804 1.502904 -0.225377 -0.241371 0.251259 -0.937315 0.175418 0.163655
-0.727216 1.175081 0.390487 -0.569262 -0.723045 0.391278 0.279333 0.163655
-1.761430 2.194957 0.674892 -0.735313 -0.479141 0.479263 0.253590 0.288954
-0.451462 1.382620 0.595147 -0.067690 -0.052431 0.996307 0.331290 0.163655
-1.452791 2.296838 0.853638 0.010620 -0.188543 0.981994 0.305548 0.290455
-0.237103 1.633850 0.392688 0.371532 0.747154 0.551073 0.383248 0.163655
-1.174743 2.463619 0.655939 0.794977 0.325816 0.511673 0.357505 0.292434
-0.265053 1.710444 -0.020715 0.285623 0.862941 -0.416791 0.435206 0.163655
-1.216571 2.473946 0.269859 0.656758 0.520249 -0.545824 0.409463 0.288954
-0.540804 1.502904 -0.225377 -0.241371 0.251259 -0.937315 0.487163 0.163655
-1.541856 2.404155 0.097800 -0.203650 0.088504 -0.975005 0.461421 0.290455
-2.034448 3.807503 0.525207 -0.916227 0.135594 -0.376995 0.173259 0.433000
-1.742166 3.883062 0.297932 -0.161534 0.219855 -0.962035 0.121302 0.437702
-1.998022 3.742939 0.875960 -0.850917 -0.036531 0.524003 0.225217 0.432648
-1.666775 3.752395 1.058892 0.030274 -0.167058 0.985473 0.277175 0.437702
-1.380864 3.718733 0.811785 0.910031 -0.094211 0.403668 0.329132 0.433000
-1.417768 3.775118 0.459548 0.799066 0.086337 -0.594989 0.381090 0.432648
-1.742166 3.883062 0.297932 -0.161534 0.219855 -0.962035 0.433048 0.437702
-1.620700 5.125731 0.845905 -0.884365 0.180670 -0.430372 0.144368 0.572834
-1.368287 5.167799 0.663625 -0.019410 0.163549 -0.986328 0.092410 0.576020
-1.630495 5.167184 1.179931 -0.808161 -0.005036 0.588916 0.196326 0.579962
-1.327826 5.079788 1.298634 0.127720 -0.114780 0.985137 0.248283 0.576020
-1.081474 5.047507 1.106031 0.886746 -0.134526 0.442183 0.300241 0.572834
-1.058113 5.172394 0.795104 0.874844 0.039979 -0.482681 0.352199 0.579962
-1.368287 5.167799 0.663625 -0.019410 0.163549 -0.986328 0.404156 0.576020
-1.470193 6.500619 0.757254 0.004334 0.068575 -0.997620 0.065625 0.709654
-1.742584 6.458219 0.884730 -0.848567 -0.046510 -0.527024 0.117582 0.713252
-1.731495 6.405091 1.187382 -0.858150 -0.084597 0.506363 0.169540 0.711774
-1.474765 6.428125 1.332001 0.109134 -0.020264 0.993805 0.221498 0.709654
-1.232517 6.551477 1.214746 0.883023 0.072512 0.463637 0.273455 0.713252
-1.231229 6.571348 0.907893 0.880367 0.130009 -0.456099 0.325413 0.711774
-1.470193 6.500619 0.757254 0.004334 0.068575 -0.997620 0.377370 0.709654
-1.685528 3.646633 0.396070 0.070650 -0.418653 -0.905362 0.521660 0.295987
-2.086243 3.916545 0.239052 0.037751 -0.483535 -0.874508 0.529215 0.333762
-1.910473 4.188797 0.400872 0.644093 0.696707 -0.315775 0.472124 0.333762
-1.505254 3.954782 0.567050 0.569994 0.756890 -0.319651 0.464568 0.295987
-1.905647 3.580713 0.772512 -0.657796 -0.670125 0.343791 0.578752 0.295987
-2.284537 3.855873 0.582855 -0.707358 -0.644215 0.290811 0.586307 0.333762
-1.725374 3.888862 0.943492 -0.099429 0.537675 0.837245 0.635843 0.295987
-2.108768 4.128129 0.744681 -0.140568 0.486404 0.862331 0.643398 0.333762
-1.505254 3.954782 0.567050 0.569994 0.756890 -0.319651 0.692935 0.295987
-1.910473 4.188797 0.400872 0.644093 0.696707 -0.315775 0.700490 0.333762
-3.298026 5.389597 -0.296520 0.087374 -0.215186 -0.972625 0.560793 0.489959
-3.769006 5.718660 -0.467288 -0.172338 -0.047365 -0.983886 0.569502 0.534311
-3.579944 5.859622 -0.289532 0.561418 0.764672 -0.316294 0.512411 0.531188
-3.131748 5.563547 -0.111296 0.715537 0.686392 -0.129795 0.503702 0.489940
-3.459401 5.293996 -0.033239 -0.751488 -0.623035 0.216834 0.617885 0.489940
-3.858184 5.587039 -0.205809 -0.642354 -0.766350 -0.005097 0.626594 0.531188
-3.293500 5.468220 0.151893 0.002564 0.344646 0.938719 0.674977 0.489959
-3.733422 5.777277 -0.033099 0.207801 0.039552 0.977355 0.683685 0.534311
-3.131748 5.563547 -0.111296 0.715537 0.686392 -0.129795 0.732068 0.489940
-3.579944 5.859622 -0.289532 0.561418 0.764672 -0.316294 0.740777 0.531188
-4.301210 6.208504 -0.086792 -0.459243 0.179022 -0.870052 0.578416 0.577857
-4.063254 6.269917 0.064649 0.628101 0.774224 -0.077609 0.521325 0.576322
-4.339363 6.012384 0.103916 -0.610736 -0.786493 0.091647 0.635508 0.576322
-4.126895 6.096226 0.275735 0.383831 -0.291910 0.876034 0.692599 0.577857
-4.063254 6.269917 0.064649 0.628101 0.774224 -0.077609 0.749691 0.576322
-1.700202 2.395543 0.561710 -0.798883 0.492843 0.344707 0.452228 0.586489
-1.394940 2.696782 0.840855 -0.840388 0.400037 0.365612 0.458819 0.619443
-1.141740 2.756432 0.495885 0.015259 0.654225 -0.756127 0.412457 0.619443
-1.414223 2.469774 0.185813 0.019745 0.723441 -0.690085 0.405866 0.586489
-1.402216 2.089194 0.715981 -0.016541 -0.616016 0.787530 0.498591 0.586489
-1.118014 2.428717 0.986959 0.006561 -0.646443 0.762902 0.505182 0.619443
-1.116236 2.163426 0.340084 0.870296 -0.335551 -0.360485 0.544953 0.586489
-0.864815 2.488362 0.641992 0.846400 -0.415265 -0.333323 0.551544 0.619443
-1.414223 2.469774 0.185813 0.019745 0.723441 -0.690085 0.591316 0.586489
-1.141740 2.756432 0.495885 0.015259 0.654225 -0.756127 0.597907 0.619443
-0.345051 3.095900 1.010137 0.443739 0.644917 -0.622181 0.425806 0.686190
-0.550470 3.097591 1.247488 -0.428327 0.802057 0.416181 0.472169 0.686190
-0.173930 3.169079 1.746555 -0.681082 0.679373 0.273019 0.482260 0.736613
0.042501 3.154573 1.538997 0.552477 0.660207 -0.508774 0.435897 0.733184
-0.504221 2.829798 1.302704 -0.302103 -0.699545 0.647542 0.518531 0.686190
-0.151891 2.908545 1.768819 -0.464553 -0.722892 0.511399 0.528622 0.733184
-0.298802 2.828107 1.065353 0.626576 -0.628193 -0.461196 0.564894 0.686190
0.124822 2.919222 1.652765 0.690390 -0.691366 -0.212928 0.574985 0.736613
-0.345051 3.095900 1.010137 0.443739 0.644917 -0.622181 0.611256 0.686190
0.042501 3.154573 1.538997 0.552477 0.660207 -0.508774 0.621347 0.733184
0.063925 3.325151 2.145051 -0.798212 0.563860 0.211890 0.490959 0.777583
0.296565 3.306481 1.987722 0.379101 0.451643 -0.807611 0.444596 0.779163
0.168380 3.157166 2.329370 -0.287423 -0.464492 0.837581 0.537321 0.779163
0.373199 3.108880 2.144663 0.693381 -0.718375 0.055818 0.583684 0.777583
0.296565 3.306481 1.987722 0.379101 0.451643 -0.807611 0.630046 0.779163
0.390250 3.732359 2.293236 -0.866146 0.483810 0.125156 0.500113 0.824583
0.553182 3.665028 2.098145 0.058840 0.056551 -0.996643 0.453751 0.823776
0.559976 3.635991 2.471315 0.049623 -0.110843 0.992584 0.546476 0.823776
0.734163 3.589734 2.277359 0.882138 -0.470473 0.020875 0.592838 0.824583
0.553182 3.665028 2.098145 0.058840 0.056551 -0.996643 0.639201 0.823776
0.599961 4.250239 2.240309 -0.971587 0.227302 0.065676 0.510271 0.875009
0.765425 4.287741 2.030071 -0.020173 -0.005860 -0.999756 0.463908 0.879329
0.805025 4.281507 2.409585 0.192114 0.020875 0.981140 0.556633 0.879329
0.947724 4.195360 2.204145 0.974609 -0.191687 -0.115543 0.602996 0.875009
0.765425 4.287741 2.030071 -0.020173 -0.005860 -0.999756 0.649358 0.879329
0.630113 4.817341 2.249985 -0.993896 0.090793 0.062227 0.520698 0.924894
0.772180 4.913556 2.070766 -0.124851 0.226325 -0.966002 0.474336 0.930396
0.810982 4.856569 2.417193 0.084262 -0.165899 0.982513 0.567061 0.930396
0.938647 4.795988 2.211787 0.984069 -0.018372 -0.176733 0.613423 0.924894
0.772180 4.913556 2.070766 -0.124851 0.226325 -0.966002 0.659786 0.930396
-1.199519 3.308214 1.142219 -0.232978 0.810968 -0.536668 0.425483 0.684572
-1.361858 3.092359 1.246399 -0.944700 -0.272866 -0.181738 0.471845 0.684572
-1.552539 3.344260 1.805645 -0.876736 -0.367809 -0.309854 0.482139 0.735481
-1.405389 3.559754 1.738099 -0.203833 0.901334 -0.382092 0.435777 0.733512
-1.119092 3.002831 1.423204 0.161290 -0.771233 0.615741 0.518207 0.684572
-1.305130 3.247766 1.934038 0.300729 -0.836207 0.458571 0.528502 0.733512
-0.956753 3.218686 1.319024 0.864223 0.456954 0.210425 0.564570 0.684572
-1.186141 3.482011 1.921572 0.845790 0.423963 0.323771 0.574864 0.735481
-1.199519 3.308214 1.142219 -0.232978 0.810968 -0.536668 0.610932 0.684572
-1.405389 3.559754 1.738099 -0.203833 0.901334 -0.382092 0.621227 0.733512
-1.836024 3.434295 2.249396 -0.741081 -0.558672 -0.372326 0.491103 0.778269
-1.715183 3.650961 2.222160 -0.122410 0.823878 -0.553362 0.444741 0.779574
-1.680543 3.378583 2.475481 0.109928 -0.769921 0.628559 0.537466 0.779574
-1.532391 3.578223 2.420580 0.767144 0.363964 0.528153 0.583828 0.778269
-1.715183 3.650961 2.222160 -0.122410 0.823878 -0.553362 0.630191 0.779574
-2.273858 3.818755 2.553678 -0.930204 -0.285867 -0.230140 0.500215 0.824696
-2.062019 3.913753 2.436685 0.011505 0.370464 -0.928739 0.453852 0.824765
-2.138009 3.790953 2.780496 -0.316202 -0.437452 0.841792 0.546577 0.824765
-1.925439 3.884128 2.662857 0.853664 0.194922 0.482925 0.592940 0.824696
-2.062019 3.913753 2.436685 0.011505 0.370464 -0.928739 0.639302 0.824765
-2.248077 4.420711 2.638090 -0.947844 -0.126713 -0.292367 0.510036 0.874687
-2.033500 4.492925 2.514421 0.348674 0.205023 -0.914518 0.463673 0.876745
-2.132581 4.438656 2.869904 -0.154271 -0.126774 0.979858 0.556398 0.876745
-1.906643 4.452147 2.739345 0.954070 0.145451 0.261849 0.602761 0.874687
-2.033500 4.492925 2.514421 0.348674 0.205023 -0.914518 0.649123 0.876745
-2.299120 5.083333 2.580474 0.184606 0.155339 -0.970428 0.474026 0.929901
-2.449157 4.924395 2.704667 -0.922575 -0.293313 -0.250587 0.520388 0.922535
-2.387321 5.032302 2.926894 -0.263283 -0.124180 0.956664 0.566751 0.929901
-2.166519 4.985672 2.787152 0.892666 0.335093 0.301401 0.613113 0.922535
-2.299120 5.083333 2.580474 0.184606 0.155339 -0.970428 0.659476 0.929901
3.977279 5.303902 -1.072282 0.672170 0.680227 0.292306 0.521713 0.023547
3.969390 4.969367 -1.066344 0.626881 -0.730064 0.272011 0.573561 0.023547
4.221020 4.987417 -1.597780 0.605853 -0.728233 0.320292 0.565551 0.063599
4.233914 5.282863 -1.614351 0.648946 0.702200 0.292795 0.513703 0.063599
3.627978 4.984690 -1.243367 -0.617573 -0.691946 -0.373821 0.625410 0.023547
3.924696 5.001799 -1.764260 -0.634419 -0.675161 -0.376324 0.617399 0.063599
3.635870 5.319271 -1.249300 -0.592029 0.717460 -0.366985 0.677258 0.023547
3.937592 5.297246 -1.780836 -0.569842 0.720023 -0.395978 0.669248 0.063599
3.977279 5.303902 -1.072282 0.672170 0.680227 0.292306 0.729106 0.023547
4.233914 5.282863 -1.614351 0.648946 0.702200 0.292795 0.721096 0.063599
4.508146 4.960135 -2.092268 0.565966 -0.692343 0.447523 0.557452 0.103931
4.526695 5.234148 -2.123335 0.699210 0.681265 0.216651 0.505604 0.101224
4.216436 4.981459 -2.213972 -0.698965 -0.651814 -0.294168 0.609301 0.101224
4.273941 5.239800 -2.313340 -0.474807 0.740532 -0.475539 0.661149 0.103931
4.526695 5.234148 -2.123335 0.699210 0.681265 0.216651 0.712997 0.101224
4.682254 4.803893 -2.516726 0.366405 -0.791864 0.488540 0.549303 0.138767
4.800163 5.025302 -2.635956 0.671285 0.661092 0.335093 0.497455 0.144623
4.511355 4.795505 -2.766318 -0.673147 -0.630665 -0.386090 0.601152 0.144623
4.522741 5.058615 -2.755607 -0.464949 0.663961 -0.585589 0.653000 0.138767
4.800163 5.025302 -2.635956 0.671285 0.661092 0.335093 0.704849 0.144623
5.194080 4.667850 -3.012082 0.299692 -0.816675 0.493149 0.540382 0.187948
5.237453 4.906343 -3.006241 0.435499 0.638050 0.634968 0.488534 0.189567
5.071566 4.696665 -3.261335 -0.417158 -0.616230 -0.667959 0.592230 0.189567
5.073579 4.936725 -3.230262 -0.338237 0.727683 -0.596667 0.644079 0.187948
5.237453 4.906343 -3.006241 0.435499 0.638050 0.634968 0.695927 0.189567
5.864877 4.726809 -3.297004 0.102145 -0.904935 0.413099 0.531090 0.238910
5.715788 4.935205 -3.243198 0.103946 0.638081 0.762871 0.479241 0.230896
5.719610 4.784463 -3.536760 -0.086581 -0.495224 -0.864406 0.582938 0.230896
5.807573 5.016182 -3.500062 -0.070467 0.777398 -0.625019 0.634786 0.238910
5.715788 4.935205 -3.243198 0.103946 0.638081 0.762871 0.686635 0.230896
6.578592 4.811036 -3.120886 0.002655 -0.902768 0.430067 0.520932 0.289510
6.433571 4.998976 -3.111825 -0.220069 0.431867 0.874660 0.469084 0.283809
6.537138 4.858676 -3.371259 0.233711 -0.562792 -0.792840 0.572781 0.283809
6.553349 5.077082 -3.324006 0.058351 0.814112 -0.577715 0.624629 0.289510
6.433571 4.998976 -3.111825 -0.220069 0.431867 0.874660 0.676477 0.283809
-0.111186 -0.217002 -0.820452 -0.050905 0.228095 -0.972289 0.206149 0.010000
-0.793573 -0.194524 -0.395481 -0.884823 0.238441 -0.400250 0.258644 0.010000
-0.562889 1.095242 -0.175805 -0.800226 -0.096622 -0.591845 0.241328 0.102556
0.045656 1.179415 -0.512628 -0.056246 0.341014 -0.938353 0.187637 0.102556
-0.686084 -0.292353 0.387133 -0.797937 0.119877 0.590625 0.310384 0.010000
-0.444520 1.009915 0.427471 -0.706504 -0.271828 0.653401 0.289964 0.102556
0.000559 -0.403968 0.761405 0.064760 0.001404 0.997894 0.361159 0.010000
0.129821 1.002518 0.740878 0.095706 0.115665 0.988647 0.342201 0.102556
0.631462 -0.415135 0.281861 0.895413 -0.039125 0.443464 0.412970 0.010000
0.693590 0.859363 0.350015 0.763085 -0.338694 0.550401 0.396386 0.102556
0.640998 -0.326690 -0.523824 0.826167 0.093204 -0.555620 0.465546 0.010000
0.624415 0.952367 -0.260917 0.589007 -0.346568 -0.730003 0.445489 0.102556
-0.111186 -0.217002 -0.820452 -0.050905 0.228095 -0.972289 0.517894 0.010000
0.045656 1.179415 -0.512628 -0.056246 0.341014 -0.938353 0.499383 0.102556
0.148935 1.631607 -0.093340 0.089816 0.932127 -0.350719 0.234079 0.130135
0.186001 1.553702 0.458703 0.178472 0.776971 0.603656 0.287171 0.124463
0.186001 1.553702 0.458703 0.178472 0.776971 0.603656 0.390700 0.126395
0.148935 1.631607 -0.093340 0.089816 0.932127 -0.350719 0.442621 0.126578
-1.265725 2.937145 1.041830 -0.999451 -0.027985 0.016480 0.465536 0.643919
-0.964853 2.976695 0.669860 0.050661 0.648946 -0.759117 0.417192 0.642528
-0.920243 2.691784 1.159519 0.027253 -0.643727 0.764763 0.511448 0.642381
-0.635502 2.693389 0.834709 0.685385 -0.576708 -0.444533 0.554412 0.643808
-0.964853 2.976695 0.669860 0.050661 0.648946 -0.759117 0.602642 0.642528
-0.814152 3.096820 1.097845 0.302927 0.900967 0.310587 0.467727 0.663983
0.744905 5.476622 2.446282 -0.839534 0.469161 0.273873 0.531276 0.982187
0.883689 5.554805 2.303224 0.033845 0.879421 -0.474807 0.484913 0.986216
0.903691 5.407878 2.559156 0.139622 0.206366 0.968444 0.577638 0.981110
1.043575 5.492575 2.418113 0.849055 0.508988 0.141484 0.624001 0.985614
0.883689 5.554805 2.303224 0.033845 0.879421 -0.474807 0.670363 0.986216
-0.814152 3.096820 1.097845 0.302927 0.900967 0.310587 0.560168 0.662561
-2.626044 5.596385 2.753976 -0.966155 0.192389 -0.171667 0.530881 0.979097
-2.477706 5.700358 2.638807 -0.055452 0.689901 -0.721732 0.484518 0.983842
-2.520715 5.660745 2.924872 -0.347545 0.498062 0.794427 0.577243 0.982917
-2.360867 5.719703 2.807597 0.618458 0.756645 0.211951 0.623606 0.984496
-2.477706 5.700358 2.638807 -0.055452 0.689901 -0.721732 0.669968 0.983842
0.744905 5.476622 2.446282 -0.839534 0.469161 0.273873 0.170651 0.081439
0.903691 5.407878 2.559156 0.139622 0.206366 0.968444 0.151488 0.062277
0.903991 5.542497 2.450072 0.641499 0.685842 0.343577 0.170651 0.062277
0.883689 5.554805 2.303224 0.033845 0.879421 -0.474807 0.189813 0.062277
1.043575 5.492575 2.418113 0.849055 0.508988 0.141484 0.170651 0.043114
-2.626044 5.596385 2.753976 -0.966155 0.192389 -0.171667 0.166540 0.017407
-2.520715 5.660745 2.924872 -0.347545 0.498062 0.794427 0.188605 0.010000
-2.499497 5.681684 2.781892 0.342204 0.922361 0.179205 0.181276 0.024736
-2.477706 5.700358 2.638807 -0.055452 0.689901 -0.721732 0.173947 0.039471
-2.360867 5.719703 2.807597 0.618458 0.756645 0.211951 0.196012 0.032065
-2.968984 4.515368 0.131990 -0.800867 -0.580248 0.147893 0.601738 0.408093
-2.781583 4.734515 0.299178 -0.044862 0.347148 0.936705 0.658830 0.412179
-2.762320 4.558614 -0.163521 -0.019410 -0.353221 -0.935301 0.544646 0.412179
-2.523526 4.698851 0.047071 0.759941 0.579821 -0.293680 0.715921 0.408093
-2.523526 4.698851 0.047071 0.759941 0.579821 -0.293680 0.487555 0.408093
7.085367 8.926143 -0.255564 0.698355 -0.213416 0.683157 0.088423 0.846225
4.964763 10.860083 0.169769 -0.014771 0.561449 0.827357 0.010000 0.846225
4.136213 8.298100 0.182520 -0.310221 -0.479720 0.820704 0.049211 0.990000
5.817363 7.053782 -1.943499 0.242164 -0.966521 0.084780 0.166845 0.846225
4.136213 8.298100 0.182520 -0.310221 -0.479720 0.820704 0.127634 0.990000
2.913114 7.830549 -2.561355 -0.715537 -0.689077 -0.114597 0.245268 0.846225
4.136213 8.298100 0.182520 -0.310221 -0.479720 0.820704 0.206057 0.990000
2.386176 10.182960 -1.255286 -0.899075 0.266182 0.347545 0.323691 0.846225
4.136213 8.298100 0.182520 -0.310221 -0.479720 0.820704 0.284480 0.990000
4.964763 10.860083 0.169769 -0.014771 0.561449 0.827357 0.402114 0.846225
4.136213 8.298100 0.182520 -0.310221 -0.479720 0.820704 0.362902 0.990000
7.157982 11.199113 -1.964132 0.715537 0.689077 0.114597 0.049211 0.702450
7.684931 8.846699 -3.270182 0.899075 -0.266182 -0.347514 0.127634 0.702450
5.934880 10.731563 -4.707997 0.310221 0.479720 -0.820704 0.088423 0.558675
5.106336 8.169580 -4.695267 0.014771 -0.561449 -0.827357 0.206057 0.702450
5.934880 10.731563 -4.707997 0.310221 0.479720 -0.820704 0.166845 0.558675
2.985750 10.103519 -4.269938 -0.698355 0.213416 -0.683157 0.284480 0.702450
5.934880 10.731563 -4.707997 0.310221 0.479720 -0.820704 0.245268 0.558675
4.253733 11.975880 -2.581989 -0.242164 0.966521 -0.084780 0.362902 0.702450
5.934880 10.731563 -4.707997 0.310221 0.479720 -0.820704 0.323691 0.558675
7.157982 11.199113 -1.964132 0.715537 0.689077 0.114597 0.441325 0.702450
5.934880 10.731563 -4.707997 0.310221 0.479720 -0.820704 0.402114 0.558675
-4.260421 10.004743 2.877817 -0.726890 0.453017 0.516098 0.109188 0.373689
-0.771260 9.325526 4.470410 0.206610 0.259743 0.943297 0.059594 0.555533
-1.150898 11.717735 1.644724 0.108737 0.975646 0.190344 0.010000 0.373689
-3.121856 6.794052 3.646034 -0.433485 -0.566271 0.700980 0.208375 0.373689
-0.771260 9.325526 4.470410 0.206610 0.259743 0.943297 0.158782 0.555533
0.691334 6.522752 2.887730 0.583453 -0.641591 0.497879 0.307564 0.373689
-0.771260 9.325526 4.470410 0.206610 0.259743 0.943297 0.257969 0.555533
1.909454 9.565767 1.650855 0.925016 0.330241 0.187689 0.406751 0.373689
-0.771260 9.325526 4.470410 0.206610 0.259743 0.943297 0.357157 0.555533
-1.150898 11.717735 1.644724 0.108737 0.975646 0.190344 0.505939 0.373689
-0.771260 9.325526 4.470410 0.206610 0.259743 0.943297 0.456345 0.555533
-3.736126 10.664758 -0.926021 -0.583453 0.641591 -0.497879 0.059594 0.191844
-2.273528 7.861983 -2.508700 -0.206610 -0.259743 -0.943297 0.109188 0.010000
-4.954239 7.621741 0.310853 -0.925016 -0.330241 -0.187689 0.158782 0.191844
-2.273528 7.861983 -2.508700 -0.206610 -0.259743 -0.943297 0.208375 0.010000
-1.893888 5.469773 0.316985 -0.108737 -0.975646 -0.190344 0.257969 0.191844
-2.273528 7.861983 -2.508700 -0.206610 -0.259743 -0.943297 0.307564 0.010000
1.215636 7.182812 -0.916102 0.726890 -0.453017 -0.516098 0.357157 0.191844
-2.273528 7.861983 -2.508700 -0.206610 -0.259743 -0.943297 0.406751 0.010000
0.077069 10.393456 -1.684324 0.433485 0.566271 -0.700980 0.456345 0.191844
-2.273528 7.861983 -2.508700 -0.206610 -0.259743 -0.943297 0.505939 0.010000
-3.736126 10.664758 -0.926021 -0.583453 0.641591 -0.497879 0.555533 0.191844
-6.568494 8.005998 2.471448 -0.673482 0.389813 0.628040 0.464198 0.872173
-5.303103 9.279405 0.883892 -0.128086 0.991455 -0.023621 0.400837 0.872173
-6.984782 7.929634 0.027745 -0.855251 0.325785 -0.402966 0.432518 0.988334
-6.855124 6.098976 1.419467 -0.799615 -0.577532 0.164495 0.527559 0.872173
-6.984782 7.929634 0.027745 -0.855251 0.325785 -0.402966 0.495878 0.988334
-5.766862 6.193752 -0.818247 -0.347270 -0.544328 -0.763573 0.590920 0.872173
-6.984782 7.929634 0.027745 -0.855251 0.325785 -0.402966 0.559239 0.988334
-4.807634 8.159374 -1.149243 0.064516 0.443525 -0.893918 0.654281 0.872173
-6.984782 7.929634 0.027745 -0.855251 0.325785 -0.402966 0.622601 0.988334
-5.303103 9.279405 0.883892 -0.128086 0.991455 -0.023621 0.717642 0.872173
-6.984782 7.929634 0.027745 -0.855251 0.325785 -0.402966 0.685962 0.988334
-4.134068 8.282969 2.804760 0.347270 0.544328 0.763573 0.432518 0.756011
-5.093270 6.317344 3.135760 -0.064516 -0.443525 0.893918 0.495878 0.756011
-2.916138 6.547086 1.958772 0.855251 -0.325785 0.402966 0.464198 0.639849
-4.597832 5.197317 1.102621 0.128086 -0.991455 0.023621 0.559239 0.756011
-2.916138 6.547086 1.958772 0.855251 -0.325785 0.402966 0.527559 0.639849
-3.332430 6.470723 -0.484936 0.673482 -0.389813 -0.628010 0.622601 0.756011
-2.916138 6.547086 1.958772 0.855251 -0.325785 0.402966 0.590920 0.639849
-3.045804 8.377745 0.567042 0.799615 0.577532 -0.164495 0.685962 0.756011
-2.916138 6.547086 1.958772 0.855251 -0.325785 0.402966 0.654281 0.639849
-4.134068 8.282969 2.804760 0.347270 0.544328 0.763573 0.749323 0.756011
-2.916138 6.547086 1.958772 0.855251 -0.325785 0.402966 0.717642 0.639849
0.275647 6.040231 1.306554 -0.448103 0.366283 -0.815455 0.748090 0.583761
1.069629 6.770403 2.176894 0.121311 0.977477 -0.172582 0.710500 0.583761
1.741398 5.874460 1.375821 0.593585 0.242470 -0.767327 0.729295 0.652675
0.872210 4.854974 1.361114 -0.035951 -0.625538 -0.779321 0.785679 0.583761
1.741398 5.874460 1.375821 0.593585 0.242470 -0.767327 0.766884 0.652675
2.034884 4.852595 2.265167 0.783197 -0.603687 -0.148747 0.823268 0.583761
1.741398 5.874460 1.375821 0.593585 0.242470 -0.767327 0.804473 0.652675
2.156900 6.036428 2.769348 0.885220 0.405896 0.227180 0.860858 0.583761
1.741398 5.874460 1.375821 0.593585 0.242470 -0.767327 0.842063 0.652675
1.069629 6.770403 2.176894 0.121311 0.977477 -0.172582 0.898447 0.583761
1.741398 5.874460 1.375821 0.593585 0.242470 -0.767327 0.879652 0.652675
-0.214739 6.304632 2.657277 -0.783197 0.603687 0.148747 0.729295 0.514847
-0.336753 5.120799 2.153096 -0.885220 -0.405896 -0.227180 0.766884 0.514847
0.078746 5.282768 3.546619 -0.593585 -0.242470 0.767327 0.748090 0.445934
0.750520 4.386824 2.745550 -0.121311 -0.977477 0.172582 0.804473 0.514847
0.078746 5.282768 3.546619 -0.593585 -0.242470 0.767327 0.785679 0.445934
1.544496 5.116998 3.615888 0.448103 -0.366283 0.815485 0.842063 0.514847
0.078746 5.282768 3.546619 -0.593585 -0.242470 0.767327 0.823268 0.445934
0.947934 6.302254 3.561329 0.035951 0.625538 0.779321 0.879652 0.514847
0.078746 5.282768 3.546619 -0.593585 -0.242470 0.767327 0.860858 0.445934
-0.214739 6.304632 2.657277 -0.783197 0.603687 0.148747 0.917241 0.514847
0.078746 5.282768 3.546619 -0.593585 -0.242470 0.767327 0.898447 0.445934
9.120762 4.935413 -2.891150 0.986480 -0.147557 0.071200 0.588077 0.268129
8.107113 4.220204 -4.173790 0.397687 -0.646718 -0.650777 0.564357 0.355103
8.366064 5.818378 -4.300112 0.563341 0.421735 -0.710471 0.540636 0.268129
7.911798 3.796429 -2.373054 0.284158 -0.898129 0.335490 0.635517 0.268129
8.107113 4.220204 -4.173790 0.397687 -0.646718 -0.650777 0.611797 0.355103
6.409836 3.975424 -3.461802 -0.533372 -0.805536 -0.257973 0.682958 0.268129
8.107113 4.220204 -4.173790 0.397687 -0.646718 -0.650777 0.659238 0.355103
6.690613 5.225031 -4.652814 -0.384838 0.004028 -0.922941 0.730399 0.268129
8.107113 4.220204 -4.173790 0.397687 -0.646718 -0.650777 0.706678 0.355103
8.366064 5.818378 -4.300112 0.563341 0.421735 -0.710471 0.777839 0.268129
8.107113 4.220204 -4.173790 0.397687 -0.646718 -0.650777 0.754119 0.355103
8.330784 6.382301 -2.577456 0.533372 0.805536 0.257973 0.564357 0.181155
6.633543 6.137517 -1.865457 -0.397687 0.646718 0.650807 0.588077 0.094180
8.050042 5.132660 -1.386458 0.384869 -0.004028 0.922941 0.611797 0.181155
6.633543 6.137517 -1.865457 -0.397687 0.646718 0.650807 0.635517 0.094180
6.374570 4.539360 -1.739145 -0.563311 -0.421735 0.710471 0.659238 0.181155
6.633543 6.137517 -1.865457 -0.397687 0.646718 0.650807 0.682958 0.094180
5.619852 5.422279 -3.148101 -0.986480 0.147526 -0.071200 0.706678 0.181155
6.633543 6.137517 -1.865457 -0.397687 0.646718 0.650807 0.730399 0.094180
6.828866 6.561310 -3.666195 -0.284158 0.898129 -0.335490 0.754119 0.181155
6.633543 6.137517 -1.865457 -0.397687 0.646718 0.650807 0.777839 0.094180
8.330784 6.382301 -2.577456 0.533372 0.805536 0.257973 0.801559 0.181155
2.446713 9.875793 -0.871084 0.474410 -0.195318 -0.858333 0.515525 0.543765
3.417340 10.191218 0.776773 0.999023 0.034425 0.027528 0.465475 0.543765
2.456704 8.729707 0.628768 0.455519 -0.887478 -0.069369 0.490500 0.635522
0.797784 9.070880 -0.369142 -0.401349 -0.704062 -0.585772 0.565574 0.543765
2.456704 8.729707 0.628768 0.455519 -0.887478 -0.069369 0.540550 0.635522
0.749319 8.888883 1.588941 -0.426954 -0.795068 0.430738 0.615624 0.543765
2.456704 8.729707 0.628768 0.455519 -0.887478 -0.069369 0.590599 0.635522
2.368295 9.581305 2.297158 0.433729 -0.345073 0.832331 0.665673 0.543765
2.456704 8.729707 0.628768 0.455519 -0.887478 -0.069369 0.640649 0.635522
3.417340 10.191218 0.776773 0.999023 0.034425 0.027528 0.715723 0.543765
2.456704 8.729707 0.628768 0.455519 -0.887478 -0.069369 0.690698 0.635522
2.352122 11.435683 -0.129661 0.426923 0.795068 -0.430738 0.490500 0.452007
0.733150 10.743261 -0.837876 -0.433729 0.345073 -0.832301 0.540550 0.452007
0.644733 11.594813 0.830506 -0.455550 0.887478 0.069369 0.515525 0.360250
-0.315899 10.133303 0.682501 -0.999023 -0.034455 -0.027528 0.590599 0.452007
0.644733 11.594813 0.830506 -0.455550 0.887478 0.069369 0.565574 0.360250
0.654729 10.448771 2.330366 -0.474410 0.195318 0.858333 0.640649 0.452007
0.644733 11.594813 0.830506 -0.455550 0.887478 0.069369 0.615624 0.360250
2.303658 11.253686 1.828422 0.401349 0.704062 0.585772 0.690698 0.452007
0.644733 11.594813 0.830506 -0.455550 0.887478 0.069369 0.665673 0.360250
2.352122 11.435683 -0.129661 0.426923 0.795068 -0.430738 0.740748 0.452007
0.644733 11.594813 0.830506 -0.455550 0.887478 0.069369 0.715723 0.360250
4 0 1 2 3
4 4 5 2 1
4 6 7 5 4
4 8 9 7 6
4 8 10 11 9
4 10 12 13 11
4 3 2 14 15
4 16 14 2 5
4 7 17 16 5
4 7 9 18 17
4 9 11 19 18
4 11 13 20 19
4 14 21 22 15
4 16 23 21 14
4 16 17 24 23
4 17 18 25 24
4 19 26 25 18
4 19 20 27 26
4 21 28 29 22
4 21 23 30 28
4 24 31 30 23
4 25 32 31 24
4 25 26 33 32
4 26 27 34 33
4 29 28 35 36
4 30 37 35 28
4 31 38 37 30
4 32 39 38 31
4 33 40 39 32
4 33 34 41 40
4 36 35 42 43
4 35 37 44 42
4 37 38 45 44
4 38 39 46 45
4 40 47 46 39
4 41 48 47 40
4 49 50 51 52
4 49 53 54 50
4 53 55 56 54
4 55 57 58 56
4 59 60 58 57
4 61 62 60 59
4 63 64 51 50
4 54 65 63 50
4 65 54 56 66
4 66 56 58 67
4 60 68 67 58
4 62 69 68 60
4 63 70 71 64
4 65 72 70 63
4 65 66 73 72
4 66 67 74 73
4 68 75 74 67
4 68 69 76 75
4 77 71 70 78
4 70 72 79 78
4 73 80 79 72
4 81 80 73 74
4 74 75 82 81
4 75 76 83 82
4 84 85 86 87
4 84 88 89 85
4 88 90 91 89
4 92 93 91 90
4 94 95 96 97
4 94 98 99 95
4 100 101 99 98
4 102 103 101 100
4 95 104 105 96
4 95 99 106 104
4 99 101 107 106
4 103 108 107 101
4 109 110 111 112
4 113 114 110 109
4 113 115 116 114
4 115 117 118 116
4 119 120 121 122
4 120 123 124 121
4 125 126 124 123
4 125 127 128 126
4 122 121 129 130
4 124 131 129 121
4 124 126 132 131
4 126 128 133 132
4 134 135 130 129
4 136 134 129 131
4 136 131 132 137
4 137 132 133 138
4 135 134 139 140
4 136 141 139 134
4 141 136 137 142
4 143 142 137 138
4 140 139 144 145
4 141 146 144 139
4 142 147 146 141
4 143 148 147 142
4 149 150 151 152
4 150 153 154 151
4 155 156 154 153
4 155 157 158 156
4 152 151 159 160
4 154 161 159 151
4 154 156 162 161
4 156 158 163 162
4 159 164 165 160
4 161 166 164 159
4 161 162 167 166
4 162 163 168 167
4 169 170 165 164
4 171 169 164 166
4 171 166 167 172
4 168 173 172 167
4 174 170 169 175
4 171 176 175 169
4 171 172 177 176
4 173 178 177 172
4 179 180 181 182
4 183 184 181 180
4 185 186 184 183
4 185 187 188 186
4 182 181 189 190
4 181 184 191 189
4 186 192 191 184
4 186 188 193 192
4 190 189 194 195
4 191 196 194 189
4 191 192 197 196
4 193 198 197 192
4 194 199 200 195
4 196 201 199 194
4 196 197 202 201
4 202 197 198 203
4 199 204 205 200
4 204 199 201 206
4 202 207 206 201
4 202 203 208 207
4 204 209 210 205
4 211 209 204 206
4 206 207 212 211
4 207 208 213 212
4 214 215 216 217
4 215 218 219 216
4 220 221 219 218
4 220 222 223 221
4 224 225 223 222
4 226 227 225 224
4 1 0 217 228
4 229 4 1 228
4 221 6 4 229
4 221 223 8 6
4 223 225 10 8
4 227 12 10 225
4 217 216 49 52
4 219 53 49 216
4 55 53 219 221
4 221 230 57 55
4 231 59 57 230
4 227 61 59 231
4 232 233 111 110
4 234 232 110 114
4 235 234 114 116
4 235 116 118 236
4 119 233 237 120
4 234 123 120 237
4 234 235 125 123
4 236 127 125 235
4 145 144 238 239
4 144 146 240 238
4 147 241 240 146
4 147 148 242 241
4 233 232 150 149
4 234 153 150 232
4 234 243 155 153
4 236 157 155 243
4 175 244 245 174
4 244 175 176 246
4 177 247 246 176
4 247 177 178 248
4 249 250 251 252
3 250 253 252
3 250 252 251
4 254 255 256 257
3 255 258 257
3 255 257 256
4 98 259 260 100
4 261 259 98 94
4 102 100 260 262
4 261 94 97 263
4 89 91 260 259
4 89 259 261 85
4 93 262 260 91
4 86 85 261 263
3 264 265 266
3 267 264 268
3 269 267 270
3 271 269 272
3 273 271 274
3 275 276 277
3 276 278 279
3 278 280 281
3 280 282 283
3 282 284 285
3 264 275 265
3 267 276 264
3 269 278 267
3 271 280 269
3 273 282 271
3 275 264 276
3 276 267 278
3 278 269 280
3 280 271 282
3 282 273 284
3 286 287 288
3 289 290 286
3 291 292 289
3 293 294 291
3 295 296 293
3 297 298 299
3 299 300 301
3 301 302 303
3 303 304 305
3 305 306 307
3 286 288 297
3 289 286 299
3 291 289 301
3 293 291 303
3 295 293 305
3 297 299 286
3 299 301 289
3 301 303 291
3 303 305 293
3 305 307 295
3 308 309 310
3 311 308 312
3 313 311 314
3 315 313 316
3 317 315 318
3 319 320 321
3 320 322 323
3 322 324 325
3 324 326 327
3 326 328 329
3 308 319 309
3 311 320 308
3 313 322 311
3 315 324 313
3 317 326 315
3 319 308 320
3 320 311 322
3 322 313 324
3 324 315 326
3 326 317 328
3 330 331 332
3 333 330 334
3 335 333 336
3 337 335 338
3 339 337 340
3 341 342 343
3 342 344 345
3 344 346 347
3 346 348 349
3 348 350 351
3 330 341 331
3 333 342 330
3 335 344 333
3 337 346 335
3 339 348 337
3 341 330 342
3 342 333 344
3 344 335 346
3 346 337 348
3 348 339 350
3 352 353 354
3 355 356 352
3 357 358 355
3 359 360 357
3 361 362 359
3 363 364 365
3 365 366 367
3 367 368 369
3 369 370 371
3 371 372 373
3 352 354 363
3 355 352 365
3 357 355 367
3 359 357 369
3 361 359 371
3 363 365 352
3 365 367 355
3 367 369 357
3 369 371 359
3 371 373 361
3 374 375 376
3 377 374 378
3 379 377 380
3 381 379 382
3 383 381 384
3 385 386 387
3 386 388 389
3 388 390 391
3 390 392 393
3 392 394 395
3 374 385 375
3 377 386 374
3 379 388 377
3 381 390 379
3 383 392 381
3 385 374 386
3 386 377 388
3 388 379 390
3 390 381 392
3 392 383 394
